<svg width="161" height="301" viewBox="0 0 161 301" fill="none" xmlns="http://www.w3.org/2000/svg">
<g filter="url(#filter0_d_1_275)">
<path fill-rule="evenodd" clip-rule="evenodd" d="M418.645 252.724C401.642 236.444 378.454 216.355 352.56 210.424C344.455 208.567 336.083 208.098 327.552 209.566C321.432 208.317 315.164 207.874 308.797 208.471C308.187 208.315 307.576 208.167 306.964 208.027C302.35 206.97 297.65 206.362 292.883 206.306C290.626 205.567 288.345 204.928 286.042 204.4C285.325 204.236 284.605 204.082 283.883 203.94C267.701 189.11 247.119 173.085 224.465 167.896C211.509 164.929 197.871 165.504 183.996 171.874C170.123 178.242 156.035 190.393 142.158 210.536C109.837 257.453 109.148 300.412 108.618 333.464C108.568 336.533 108.521 339.517 108.449 342.411C108.026 359.46 106.775 373.299 99.6448 383.099C92.5298 392.878 79.4951 398.712 55.298 399.547L55.2976 400.136C79.5438 399.3 92.8007 393.452 100.077 383.45C107.339 373.469 108.58 359.427 109.002 342.407C109.073 339.511 109.121 336.527 109.171 333.459C109.702 300.412 110.391 257.63 142.6 210.874C156.432 190.796 170.445 178.729 184.2 172.414C197.953 166.101 211.471 165.527 224.332 168.473C246.521 173.555 266.743 189.109 282.794 203.734C282.272 203.64 281.748 203.551 281.224 203.469C280.368 203.102 279.509 202.748 278.645 202.407C265.847 192.586 251.341 183.987 235.869 180.443C222.912 177.476 209.275 178.051 195.399 184.421C181.527 190.79 167.438 202.94 153.562 223.083C121.241 270 120.551 312.959 120.021 346.011L120.021 346.014C119.972 349.082 119.924 352.065 119.852 354.958C119.43 372.007 118.178 385.846 111.048 395.646C103.933 405.425 90.8983 411.26 66.7012 412.095L66.7008 412.684C90.947 411.847 104.204 405.999 111.481 395.998C118.742 386.016 119.983 371.975 120.405 354.954C120.476 352.062 120.524 349.081 120.574 346.017L120.574 346.006C121.105 312.96 121.794 270.177 154.003 223.422C167.836 203.343 181.848 191.276 195.604 184.961C209.356 178.648 222.874 178.074 235.735 181.02C250.473 184.395 264.343 192.391 276.699 201.665C276.521 201.599 276.342 201.534 276.164 201.47C267.897 196.681 259.147 192.859 250.064 190.778C237.108 187.81 223.47 188.386 209.595 194.756C195.722 201.124 181.634 213.275 167.757 233.418C135.436 280.335 134.747 323.294 134.216 356.346C134.167 359.415 134.119 362.399 134.048 365.292C133.625 382.342 132.374 396.181 125.244 405.981C118.129 415.76 105.094 421.594 80.8968 422.429L80.8964 423.018C105.143 422.182 118.399 416.334 125.676 406.332C132.938 396.351 134.179 382.309 134.6 365.289C134.672 362.393 134.72 359.409 134.769 356.341C135.301 323.294 135.989 280.512 168.199 233.756C182.031 213.677 196.044 201.611 209.799 195.296C223.552 188.983 237.07 188.409 249.931 191.355C257.957 193.193 265.726 196.402 273.133 200.441C271.08 199.787 269.008 199.216 266.918 198.737C253.962 195.77 240.324 196.345 226.449 202.715C212.576 209.084 198.488 221.234 184.611 241.377C152.29 288.294 151.601 331.253 151.071 364.305C151.021 367.375 150.973 370.358 150.902 373.252C150.479 390.301 149.228 404.14 142.098 413.94C134.983 423.719 121.948 429.554 97.7509 430.389L97.7505 430.978C121.997 430.141 135.254 424.293 142.53 414.292C149.792 404.31 151.033 390.269 151.454 373.248C151.526 370.352 151.574 367.368 151.624 364.3C152.155 331.254 152.844 288.471 185.053 241.716C198.885 221.637 212.898 209.57 226.653 203.255C240.406 196.942 253.924 196.368 266.785 199.314C269.873 200.021 272.923 200.931 275.929 202.013C276.488 202.338 277.046 202.667 277.602 203.001C267.215 201.947 256.467 203.377 245.573 208.378C231.7 214.747 217.612 226.897 203.735 247.04C171.414 293.957 170.725 336.916 170.195 369.968C170.145 373.037 170.097 376.021 170.026 378.915C169.603 395.964 168.352 409.803 161.222 419.603C154.107 429.382 141.072 435.216 116.875 436.051L116.874 436.641C141.121 435.804 154.377 429.956 161.654 419.954C168.916 409.973 170.157 395.932 170.578 378.911C170.649 376.045 170.697 373.092 170.746 370.057L170.746 370.031L170.747 370.021L170.747 370.014L170.747 369.994L170.747 369.988L170.747 369.968L170.747 369.963C171.279 336.916 171.967 294.134 204.177 247.379C218.009 227.3 232.022 215.233 245.777 208.918C257.019 203.758 268.103 202.432 278.801 203.729C279.802 204.344 280.795 204.972 281.781 205.612C282.328 206.052 282.873 206.493 283.414 206.936C277.834 207.754 272.184 209.392 266.494 212.004C252.622 218.373 238.533 230.523 224.657 250.666C192.336 297.584 191.646 340.542 191.116 373.595L191.116 373.597C191.067 376.665 191.019 379.648 190.947 382.541C190.525 399.59 189.273 413.429 182.143 423.229C175.028 433.009 161.993 438.843 137.796 439.678L137.796 440.267C162.042 439.43 175.299 433.582 182.576 423.581C189.838 413.599 191.078 399.558 191.5 382.537C191.571 379.648 191.619 376.671 191.669 373.61L191.669 373.609L191.669 373.591L191.669 373.589C192.201 340.543 192.889 297.76 225.099 251.005C238.931 230.926 252.943 218.859 266.699 212.544C272.528 209.868 278.316 208.223 284.029 207.441C286.296 209.31 288.502 211.201 290.642 213.091C290.023 213.353 289.402 213.626 288.782 213.911C274.909 220.28 260.821 232.43 246.944 252.573C214.623 299.49 213.934 342.449 213.403 375.501C213.354 378.571 213.306 381.554 213.234 384.448C212.812 401.497 211.56 415.336 204.43 425.136C197.315 434.915 184.281 440.75 160.084 441.585L160.083 442.174C184.329 441.337 197.586 435.489 204.863 425.488C212.125 415.506 213.365 401.465 213.787 384.444C213.859 381.548 213.907 378.564 213.956 375.496C214.488 342.45 215.176 299.667 247.386 252.912C261.218 232.833 275.231 220.766 288.986 214.451C289.699 214.124 290.411 213.812 291.122 213.516C294.174 216.223 297.088 218.923 299.852 221.544C289.981 228.576 280.064 238.822 270.253 253.064C237.932 299.981 237.243 342.94 236.712 375.992C236.663 379.061 236.615 382.045 236.544 384.938C236.121 401.988 234.87 415.827 227.74 425.627C220.624 435.406 207.59 441.24 183.393 442.075L183.392 442.664C207.639 441.828 220.895 435.98 228.172 425.978C235.434 415.997 236.674 401.955 237.096 384.934C237.168 382.039 237.216 379.055 237.265 375.987C237.797 342.94 238.485 300.158 270.695 253.402C280.515 239.147 290.427 228.93 300.272 221.943C300.711 222.36 301.146 222.775 301.577 223.187L301.954 222.743C301.558 222.364 301.159 221.984 300.757 221.601C301.127 221.343 301.497 221.089 301.867 220.839C306.849 225.113 311.503 229.434 315.772 233.522L316.149 233.078C311.921 229.029 307.31 224.745 302.37 220.502C303.472 219.77 304.574 219.078 305.674 218.424C315.72 225.742 324.815 234.003 332.626 241.481L333.003 241.037C325.252 233.616 316.216 225.403 306.224 218.101C307.958 217.09 309.689 216.176 311.416 215.353C326.832 224.199 340.6 236.468 351.75 247.144L352.127 246.7C341.07 236.113 327.397 223.915 312.065 215.048L312.148 215.009L312.295 214.942C314.467 213.945 316.633 213.091 318.791 212.372C339.7 220.708 358.346 237.055 372.672 250.77L373.049 250.326C358.879 236.759 340.413 220.546 319.666 212.087C322.298 211.253 324.92 210.617 327.526 210.164C328.058 210.273 328.588 210.389 329.118 210.51C354.858 216.406 377.953 236.395 394.959 252.677L395.336 252.233C378.333 235.953 355.145 215.864 329.251 209.933L329.136 209.907C337.07 208.753 344.862 209.268 352.427 211C378.167 216.896 401.262 236.886 418.268 253.168L418.645 252.724ZM283.623 204.492L283.454 204.459L283.624 204.537L283.721 204.582L283.623 204.492ZM286.496 207.155C287.751 208.331 288.977 209.495 290.173 210.64L290.55 210.196C289.482 209.173 288.39 208.135 287.274 207.087C287.341 207.082 287.409 207.076 287.477 207.071C290.079 208.407 292.638 209.851 295.151 211.38C294.228 211.691 293.303 212.026 292.377 212.387C290.081 210.636 287.73 208.925 285.329 207.277C285.718 207.233 286.107 207.192 286.496 207.155ZM285.171 205.921C285.424 206.155 285.675 206.388 285.925 206.622C285.481 206.668 285.037 206.719 284.593 206.775C283.769 206.216 282.94 205.665 282.105 205.123C281.629 204.741 281.151 204.361 280.671 203.982L280.835 204.007C280.911 204.019 280.987 204.031 281.063 204.042C282.443 204.636 283.813 205.263 285.171 205.921ZM285.485 205.417C285.234 205.184 284.981 204.951 284.727 204.716C285.122 204.8 285.516 204.887 285.909 204.977C287.597 205.363 289.274 205.811 290.938 206.313C289.829 206.336 288.716 206.388 287.6 206.472C286.898 206.112 286.193 205.761 285.485 205.417ZM291.241 212.842C289.839 211.601 288.409 210.359 286.951 209.123C288.572 210.27 290.169 211.445 291.741 212.638L291.623 212.686C291.495 212.737 291.368 212.789 291.241 212.842ZM300.337 221.202C297.61 218.614 294.734 215.947 291.722 213.269C291.907 213.194 292.092 213.12 292.277 213.047C295.43 215.459 298.48 217.947 301.418 220.455C301.058 220.7 300.697 220.949 300.337 221.202ZM301.921 220.117C303.005 219.393 304.088 218.707 305.17 218.059C302.129 215.861 299.002 213.751 295.799 211.777C294.839 212.091 293.878 212.431 292.916 212.799C296.022 215.185 299.027 217.643 301.921 220.117ZM295.883 211.139C293.499 209.676 291.073 208.288 288.607 206.994C290.003 206.912 291.395 206.88 292.78 206.894C295.388 207.75 297.963 208.739 300.504 209.842C298.968 210.209 297.427 210.64 295.883 211.139ZM305.719 217.733C302.739 215.571 299.674 213.492 296.534 211.541C298.159 211.031 299.78 210.597 301.396 210.235C304.593 211.661 307.733 213.265 310.809 215.006C309.115 215.827 307.418 216.735 305.719 217.733ZM311.839 214.518L311.97 214.457L312.091 214.402C314.051 213.502 316.006 212.718 317.955 212.043C314.927 210.87 311.853 209.867 308.738 209.067C306.624 209.268 304.5 209.585 302.367 210.026C305.453 211.432 308.485 213.002 311.455 214.697C311.517 214.668 311.578 214.64 311.639 214.611L311.76 214.555L311.839 214.518ZM301.467 209.621C303.342 209.206 305.21 208.887 307.07 208.658L306.961 208.633L306.831 208.603C302.868 207.695 298.843 207.122 294.768 206.947C297.027 207.746 299.261 208.641 301.467 209.621ZM318.824 211.749C316.085 210.663 313.306 209.714 310.493 208.926C315.728 208.583 320.893 208.939 325.963 209.861C323.594 210.335 321.214 210.961 318.824 211.749ZM215.646 153.526C241.54 159.457 264.728 179.546 281.731 195.826L281.354 196.27C264.349 179.988 241.254 159.999 215.513 154.103C202.652 151.157 189.134 151.731 175.381 158.044C161.626 164.359 147.613 176.426 133.781 196.505C101.572 243.26 100.883 286.042 100.352 319.089C100.302 322.157 100.254 325.141 100.182 328.037C99.7607 345.058 98.5202 359.099 91.2583 369.081C83.9816 379.082 70.7248 384.93 46.4785 385.767L46.479 385.178C70.676 384.343 83.7107 378.508 90.8257 368.729C97.9557 358.929 99.2073 345.09 99.6298 328.041C99.7015 325.147 99.7493 322.164 99.7986 319.094C100.329 286.042 101.018 243.083 133.339 196.166C147.216 176.023 161.304 163.873 175.177 157.504C189.052 151.134 202.69 150.559 215.646 153.526ZM275.017 180.115C258.014 163.835 234.826 143.746 208.932 137.815C195.975 134.848 182.338 135.423 168.462 141.793C154.59 148.162 140.501 160.312 126.625 180.455C94.3037 227.372 93.6144 270.331 93.084 303.383C93.0347 306.453 92.9869 309.436 92.9152 312.33C92.4927 329.379 91.2411 343.218 84.1111 353.018C76.9961 362.797 63.9614 368.632 39.7643 369.467L39.7639 370.056C64.0101 369.219 77.267 363.371 84.5437 353.37C91.8055 343.388 93.0461 329.347 93.4678 312.326C93.5396 309.43 93.5876 306.446 93.637 303.378C94.1686 270.331 94.8569 227.549 127.067 180.794C140.899 160.715 154.911 148.648 168.667 142.333C182.42 136.02 195.937 135.446 208.799 138.392C234.539 144.288 257.634 164.277 274.64 180.559L275.017 180.115ZM203.731 121.208C229.625 127.14 252.813 147.229 269.816 163.508L269.439 163.952C252.433 147.67 229.338 127.681 203.598 121.785C190.737 118.839 177.219 119.413 163.466 125.726C149.71 132.041 135.698 144.108 121.866 164.187C89.6561 210.942 88.9678 253.725 88.4362 286.771L88.436 286.779C88.3867 289.844 88.3387 292.826 88.2671 295.719C87.8453 312.74 86.6048 326.781 79.343 336.763C72.0662 346.764 58.8094 352.612 34.5632 353.449L34.5635 352.86C58.7606 352.025 71.7953 346.191 78.9103 336.411C86.0403 326.611 87.2919 312.772 87.7144 295.723C87.786 292.834 87.8338 289.856 87.8829 286.792L87.8831 286.785L87.8832 286.777C88.4136 253.724 89.1029 210.765 121.424 163.848C135.3 143.705 149.389 131.555 163.262 125.186C177.137 118.816 190.775 118.241 203.731 121.208ZM265.557 146.375C248.554 130.095 225.367 110.006 199.472 104.075C186.516 101.108 172.878 101.683 159.003 108.053C145.13 114.422 131.042 126.572 117.165 146.715C84.8444 193.632 84.1551 236.591 83.6247 269.643C83.5755 272.713 83.5276 275.696 83.4559 278.59C83.0334 295.639 81.7818 309.478 74.6518 319.278C67.5368 329.057 54.5021 334.892 30.305 335.727L30.3046 336.316C54.5508 335.479 67.8077 329.631 75.0845 319.63C82.3463 309.648 83.5868 295.607 84.0086 278.586C84.0803 275.69 84.1283 272.706 84.1777 269.638C84.7093 236.592 85.3976 193.809 117.607 147.054C131.439 126.975 145.452 114.908 159.207 108.593C172.96 102.28 186.478 101.706 199.339 104.652C225.08 110.548 248.175 130.537 265.18 146.819L265.557 146.375ZM195.675 86.6927C221.569 92.6238 244.757 112.713 261.76 128.992L261.383 129.437C244.377 113.154 221.282 93.1651 195.541 87.2692C182.68 84.3234 169.163 84.8972 155.41 91.2107C141.654 97.5254 127.642 109.592 113.81 129.671C81.5998 176.427 80.9116 219.209 80.3799 252.255L80.3797 252.263C80.3305 255.329 80.2825 258.31 80.2108 261.203C79.789 278.224 78.5485 292.266 71.2867 302.247C64.0099 312.249 50.7531 318.096 26.5069 318.933L26.5073 318.344C50.7043 317.509 63.739 311.675 70.8541 301.895C77.984 292.095 79.2356 278.256 79.6581 261.207C79.7296 258.32 79.7774 255.343 79.8266 252.282L79.8267 252.277L79.8269 252.264L79.8269 252.261C80.3573 219.208 81.0467 176.25 113.368 129.332C127.244 109.189 141.333 97.039 155.205 90.6705C169.081 84.3007 182.718 83.7251 195.675 86.6927ZM258.039 111.57C241.036 95.2905 217.849 75.2015 191.954 69.2704C178.998 66.3028 165.36 66.8784 151.485 73.2481C137.612 79.6167 123.524 91.767 109.647 111.91C77.3264 158.827 76.6371 201.786 76.1067 234.838C76.0575 237.908 76.0096 240.891 75.9379 243.785C75.5154 260.834 74.2638 274.673 67.1338 284.473C60.0188 294.252 46.9841 300.087 22.787 300.922L22.7867 301.511C47.0329 300.674 60.2897 294.826 67.5665 284.825C74.8283 274.843 76.0688 260.802 76.4906 243.781C76.5623 240.885 76.6103 237.901 76.6597 234.833C77.1914 201.787 77.8796 159.004 110.089 112.249C123.921 92.1698 137.934 80.103 151.689 73.7883C165.442 67.4748 178.96 66.9011 191.821 69.8469C217.562 75.7428 240.657 95.7321 257.662 112.014L258.039 111.57ZM188.024 51.9579C213.918 57.8889 237.106 77.9779 254.109 94.2575L253.732 94.7018C236.726 78.4195 213.631 58.4302 187.891 52.5344C175.03 49.5886 161.512 50.1623 147.759 56.4758C134.003 62.7905 119.991 74.8573 106.159 94.9361C73.949 141.692 73.2607 184.474 72.7291 217.521L72.7291 217.526L72.7285 217.556C72.6793 220.612 72.6314 223.584 72.56 226.468C72.1382 243.489 70.8977 257.531 63.6359 267.512C56.3591 277.514 43.1023 283.361 18.856 284.198L18.8565 283.609C43.0535 282.774 56.0882 276.94 63.2032 267.161C70.3332 257.361 71.5848 243.521 72.0073 226.472C72.079 223.579 72.1269 220.595 72.1761 217.526C72.7065 184.473 73.3958 141.515 105.717 94.5975C119.593 74.4545 133.682 62.3042 147.555 55.9356C161.43 49.5659 175.068 48.9903 188.024 51.9579ZM249.756 77.1757C232.754 60.8961 209.566 40.8071 183.671 34.8761C170.715 31.9085 157.078 32.4841 143.202 38.8538C129.33 45.2223 115.241 57.3727 101.365 77.5157C69.0436 124.433 68.3542 167.392 67.8239 200.444C67.7746 203.513 67.7267 206.497 67.655 209.39C67.2325 226.44 65.9809 240.279 58.851 250.079C51.736 259.858 38.7012 265.692 14.5042 266.527L14.5038 267.116C38.75 266.28 52.0068 260.432 59.2836 250.43C66.5454 240.449 67.7859 226.407 68.2077 209.387C68.2794 206.491 68.3275 203.507 68.3768 200.439C68.9085 167.392 69.5968 124.61 101.806 77.8543C115.639 57.7754 129.651 45.7087 143.407 39.394C157.159 33.0805 170.677 32.5067 183.538 35.4526C209.279 41.3484 232.374 61.3377 249.38 77.62L249.756 77.1757ZM178.752 18.1115C204.646 24.0426 227.834 44.1315 244.837 60.4111L244.46 60.8554C227.454 44.5731 204.359 24.5838 178.619 18.688C165.758 15.7422 152.24 16.3159 138.487 22.6294C124.732 28.9441 110.719 41.0109 96.8869 61.0897C64.6772 107.845 63.9889 150.628 63.4573 183.674L63.4571 183.681L63.4571 183.687C63.4078 186.751 63.3598 189.73 63.2881 192.622C62.8663 209.643 61.6258 223.684 54.364 233.666C47.0872 243.667 33.8304 249.515 9.58423 250.352L9.58461 249.763C33.7817 248.928 46.8164 243.094 53.9314 233.314C61.0614 223.514 62.3129 209.675 62.7354 192.626C62.8071 189.735 62.855 186.753 62.9042 183.687L62.9043 183.68C63.4347 150.627 64.124 107.669 96.4451 60.7511C110.321 40.6081 124.41 28.4578 138.283 22.0892C152.158 15.7195 165.796 15.1439 178.752 18.1115ZM239.253 44.0247C222.25 27.7451 199.062 7.65613 173.168 1.72508C160.211 -1.24254 146.574 -0.666926 132.699 5.7028C118.826 12.0713 104.737 24.2217 90.8609 44.3647C58.5398 91.2821 57.8505 134.241 57.3201 167.293C57.2708 170.362 57.223 173.346 57.1512 176.239C56.7287 193.289 55.4772 207.128 48.3472 216.928C41.2322 226.707 28.1975 232.541 4.0004 233.376L4.00002 233.965C28.2462 233.129 41.503 227.281 48.7798 217.279C56.0417 207.298 57.2821 193.256 57.7039 176.236C57.7757 173.34 57.8237 170.356 57.8731 167.288C58.4047 134.241 59.093 91.459 91.3027 44.7033C105.135 24.6245 119.147 12.5577 132.903 6.24301C146.656 -0.0704813 160.173 -0.644264 173.035 2.30157C198.775 8.19742 221.87 28.1867 238.876 44.469L239.253 44.0247Z" fill="url(#paint0_radial_1_275)" fill-opacity="0.58" shape-rendering="crispEdges"/>
</g>
<defs>
<filter id="filter0_d_1_275" x="0" y="0" width="422.645" height="450.664" filterUnits="userSpaceOnUse" color-interpolation-filters="sRGB">
<feFlood flood-opacity="0" result="BackgroundImageFix"/>
<feColorMatrix in="SourceAlpha" type="matrix" values="0 0 0 0 0 0 0 0 0 0 0 0 0 0 0 0 0 0 127 0" result="hardAlpha"/>
<feOffset dy="4"/>
<feGaussianBlur stdDeviation="2"/>
<feComposite in2="hardAlpha" operator="out"/>
<feColorMatrix type="matrix" values="0 0 0 0 0 0 0 0 0 0 0 0 0 0 0 0 0 0 0.25 0"/>
<feBlend mode="normal" in2="BackgroundImageFix" result="effect1_dropShadow_1_275"/>
<feBlend mode="normal" in="SourceGraphic" in2="effect1_dropShadow_1_275" result="shape"/>
</filter>
<radialGradient id="paint0_radial_1_275" cx="0" cy="0" r="1" gradientTransform="matrix(-138.9 147.162 -139.402 -150.263 165.284 192.91)" gradientUnits="userSpaceOnUse">
<stop stop-color="white"/>
<stop offset="1" stop-color="#1E1E1E" stop-opacity="0"/>
<stop offset="1" stop-color="#0E0E35" stop-opacity="0"/>
<stop offset="1" stop-color="white" stop-opacity="0"/>
</radialGradient>
</defs>
</svg>
