<svg width="167" height="129" viewBox="0 0 167 129" fill="none" xmlns="http://www.w3.org/2000/svg">
<path fill-rule="evenodd" clip-rule="evenodd" d="M157.57 -188.882C147.501 -173.797 135.362 -153.494 134.337 -133.034C134.016 -126.631 134.783 -120.212 137.042 -113.932C136.917 -109.122 137.422 -104.309 138.728 -99.5587C138.692 -99.078 138.662 -98.5972 138.638 -98.1162C138.455 -94.4727 138.625 -90.8237 139.221 -87.198C138.964 -85.3875 138.786 -83.5723 138.695 -81.7558C138.667 -81.1941 138.647 -80.6322 138.636 -80.0704C129.557 -65.8023 120.16 -48.0295 119.263 -30.1355C118.75 -19.8956 121.02 -9.6121 127.724 0.0732928C134.427 9.7563 145.548 18.8217 162.702 26.6501C202.658 44.8848 235.365 39.6382 260.515 35.6037C262.85 35.2291 265.12 34.8649 267.325 34.531C280.321 32.5626 290.966 31.6599 299.336 35.7429C307.682 39.8148 313.852 48.8967 317.733 67.1382L318.313 67.0359C314.422 48.7464 308.2 39.4481 299.606 35.2556C291.035 31.0744 280.192 32.0233 267.225 33.9874C265.021 34.3212 262.754 34.6848 260.423 35.0585L260.417 35.0595L260.413 35.0601C235.269 39.0923 202.736 44.3093 162.958 26.156C145.875 18.36 134.85 9.3549 128.221 -0.222025C121.593 -9.79657 119.346 -19.9624 119.854 -30.1048C120.727 -47.524 129.726 -64.8621 138.625 -78.9652C138.625 -78.6362 138.628 -78.3073 138.635 -77.9784C138.472 -77.2844 138.32 -76.5891 138.178 -75.8927C132.444 -64.8612 127.865 -52.6947 127.253 -40.4717C126.739 -30.2319 129.009 -19.9483 135.714 -10.263C142.416 -0.579944 153.537 8.48544 170.691 16.3139C210.647 34.5486 243.354 29.3019 268.504 25.2675C270.839 24.8929 273.109 24.5287 275.314 24.1947C288.31 22.2263 298.955 21.3236 307.325 25.4067C315.671 29.4785 321.842 38.5605 325.722 56.8019L326.302 56.6997C322.411 38.4101 316.189 29.1119 307.595 24.9194C299.025 20.7381 288.182 21.687 275.214 23.6512C273.007 23.9854 270.736 24.3496 268.402 24.7239C243.258 28.756 210.725 33.973 170.947 15.8198C153.864 8.02376 142.839 -0.981339 136.21 -10.5583C129.582 -20.1328 127.335 -30.2987 127.843 -40.4411C128.418 -51.9049 132.512 -63.3337 137.781 -73.8284C135.266 -66.9259 133.547 -59.7875 133.189 -52.6297C132.676 -42.3898 134.945 -32.1063 141.65 -22.4209C148.352 -12.7379 159.473 -3.67254 176.627 4.15587C216.584 22.3906 249.29 17.1439 274.44 13.1095L274.444 13.1088L274.456 13.1068L274.464 13.1056L274.468 13.1049L274.483 13.1026C276.803 12.7305 279.059 12.3687 281.25 12.0367C294.246 10.0683 304.891 9.16566 313.261 13.2487C321.607 17.3206 327.778 26.4025 331.658 44.6439L332.238 44.5417C328.348 26.2521 322.125 16.9539 313.532 12.7614C304.961 8.58014 294.118 9.52904 281.15 11.4932C278.943 11.8275 276.673 12.1916 274.338 12.5659L274.338 12.5659C249.194 16.5981 216.661 21.815 176.883 3.66183C159.8 -4.13421 148.775 -13.1393 142.146 -22.7162C135.518 -32.2908 133.271 -42.4567 133.779 -52.599C134.085 -58.7005 135.388 -64.792 137.334 -70.738C137.161 -69.3224 137.036 -67.9044 136.965 -66.4856C136.452 -56.2458 138.722 -45.9622 145.426 -36.2768C152.128 -26.5938 163.249 -17.5284 180.403 -9.70004C220.36 8.53468 253.066 3.28802 278.216 -0.74642L278.219 -0.746843C280.553 -1.12132 282.822 -1.48534 285.026 -1.81916C298.022 -3.78758 308.668 -4.69027 317.037 -0.607227C325.384 3.46464 331.554 12.5466 335.434 30.788L336.014 30.6858C332.124 12.3962 325.902 3.09795 317.308 -1.09449C308.737 -5.27577 297.894 -4.32687 284.926 -2.36272C282.719 -2.02846 280.449 -1.66434 278.115 -1.29001C252.97 2.74214 220.438 7.9591 180.66 -10.1941C163.577 -17.9901 152.551 -26.9952 145.922 -36.5722C139.295 -46.1467 137.048 -56.3126 137.556 -66.455C137.678 -68.888 137.958 -71.3194 138.375 -73.7407C138.511 -74.1124 138.649 -74.4835 138.789 -74.8538C139.426 -66.9247 141.958 -59.0561 147.156 -51.547C153.858 -41.864 164.979 -32.7986 182.133 -24.9702C222.09 -6.73547 254.796 -11.9821 279.946 -16.0166L279.949 -16.017C282.283 -16.3915 284.552 -16.7555 286.756 -17.0893C299.752 -19.0577 310.397 -19.9604 318.767 -15.8774C327.114 -11.8055 333.284 -2.72357 337.164 15.5179L337.744 15.4156C333.854 -2.87393 327.631 -12.1722 319.038 -16.3646C310.467 -20.5459 299.624 -19.597 286.656 -17.6329C284.455 -17.2995 282.191 -16.9364 279.863 -16.5632L279.855 -16.5618L279.851 -16.5613L279.844 -16.5602C254.7 -12.528 222.167 -7.31104 182.389 -25.4642C165.306 -33.2603 154.281 -42.2654 147.652 -51.8423C142.238 -59.6643 139.747 -67.8809 139.293 -76.157C139.624 -76.9942 139.965 -77.8276 140.317 -78.6568C140.551 -79.0841 140.787 -79.5096 141.023 -79.933C142.394 -75.8548 144.382 -71.832 147.099 -67.9075C153.801 -58.2245 164.922 -49.1591 182.076 -41.3307C222.033 -23.096 254.739 -28.3426 279.889 -32.377L279.896 -32.3782C282.229 -32.7524 284.497 -33.1162 286.699 -33.4498C299.695 -35.4182 310.34 -36.3209 318.71 -32.2379C327.056 -28.166 333.227 -19.0841 337.107 -0.842599L337.687 -0.944863C333.797 -19.2344 327.574 -28.5327 318.981 -32.7251C310.41 -36.9064 299.567 -35.9575 286.599 -33.9934C284.394 -33.6594 282.125 -33.2956 279.793 -32.9215L279.789 -32.9209L279.787 -32.9206C254.643 -28.8885 222.11 -23.6715 182.332 -41.8247C165.249 -49.6208 154.224 -58.6259 147.595 -68.2028C144.791 -72.2533 142.771 -76.4097 141.412 -80.6254C142.503 -82.5556 143.618 -84.444 144.741 -86.2842C145.005 -85.8797 145.275 -85.4761 145.554 -85.0736C152.257 -75.3906 163.378 -66.3252 180.531 -58.4968C220.488 -40.2621 253.195 -45.5088 278.344 -49.5432L278.346 -49.5435C280.681 -49.918 282.95 -50.2821 285.155 -50.6159C298.15 -52.5843 308.796 -53.487 317.165 -49.404C325.512 -45.3321 331.682 -36.2502 335.562 -18.0087L336.143 -18.111C332.252 -36.4005 326.03 -45.6988 317.436 -49.8913C308.865 -54.0725 298.022 -53.1236 285.054 -51.1595C282.849 -50.8255 280.581 -50.4617 278.248 -50.0877L278.244 -50.087L278.243 -50.0868C253.098 -46.0546 220.566 -40.8377 180.788 -58.9909C163.705 -66.7869 152.68 -75.792 146.05 -85.3689C145.714 -85.8546 145.389 -86.3418 145.075 -86.8305C146.697 -89.4713 148.331 -92.0105 149.928 -94.4286C156.59 -87.8984 165.684 -81.7659 177.775 -76.248C217.732 -58.0133 250.438 -63.2599 275.588 -67.2944C277.923 -67.669 280.193 -68.0332 282.398 -68.3671C295.394 -70.3355 306.039 -71.2382 314.409 -67.1552C322.755 -63.0833 328.926 -54.0014 332.806 -35.7599L333.386 -35.8622C329.496 -54.1517 323.273 -63.45 314.68 -67.6424C306.109 -71.8237 295.266 -70.8748 282.298 -68.9106C280.091 -68.5764 277.82 -68.2123 275.486 -67.8379C250.342 -63.8058 217.809 -58.5888 178.031 -76.742C165.925 -82.267 156.861 -88.3991 150.248 -94.9117C150.496 -95.2864 150.743 -95.6581 150.989 -96.0268L150.486 -96.3205C150.267 -95.9927 150.048 -95.6625 149.827 -95.3299C149.613 -95.5442 149.402 -95.7588 149.194 -95.9739C151.759 -100.312 154.405 -104.408 156.925 -108.185L156.422 -108.478C153.933 -104.749 151.317 -100.701 148.775 -96.4111C148.105 -97.1162 147.462 -97.8256 146.847 -98.5388C151.045 -107.125 156.082 -115.12 160.702 -122.041L160.198 -122.334C155.625 -115.483 150.625 -107.555 146.433 -99.0245C145.468 -100.168 144.572 -101.322 143.742 -102.484C148.382 -115.347 155.833 -127.425 162.431 -137.311L161.928 -137.605C155.401 -127.826 148.004 -115.855 143.329 -103.07L143.294 -103.12C142.252 -104.626 141.318 -106.146 140.486 -107.679C144.005 -124.641 153.894 -140.966 162.374 -153.671L161.871 -153.965C153.51 -141.439 143.722 -125.316 140.055 -108.492C139.11 -110.316 138.307 -112.157 137.636 -114.011C137.647 -114.424 137.663 -114.838 137.684 -115.252C138.701 -135.555 150.758 -155.749 160.83 -170.837L160.327 -171.131C150.302 -156.113 138.226 -135.924 137.107 -115.555C135.257 -121.3 134.634 -127.156 134.927 -133.003C135.945 -153.306 148.002 -173.5 158.073 -188.589L157.57 -188.882ZM140.096 -81.2693C139.781 -80.1567 139.491 -79.04 139.227 -77.92L139.228 -77.8777C139.411 -78.2166 139.594 -78.5543 139.778 -78.8909C140.074 -79.5888 140.377 -80.2837 140.687 -80.9753C140.602 -81.2503 140.519 -81.5256 140.44 -81.8011C140.325 -81.6244 140.21 -81.4471 140.096 -81.2693ZM140.865 -82.4552C140.926 -82.233 140.989 -82.0109 141.054 -81.7891C141.576 -82.9329 142.115 -84.0674 142.668 -85.1915C142.072 -84.2965 141.47 -83.3841 140.865 -82.4552ZM142.933 -85.7294C143.25 -86.366 143.571 -86.9991 143.895 -87.6286C143.53 -88.2312 143.18 -88.8357 142.846 -89.4423C142.051 -87.3924 141.323 -85.3201 140.677 -83.2312C141.289 -84.1667 141.897 -85.0847 142.497 -85.9842L142.933 -85.7294ZM139.545 -81.4906C139.709 -82.0664 139.879 -82.6411 140.055 -83.2145C139.879 -83.9054 139.719 -84.5976 139.575 -85.2908C139.443 -84.1033 139.345 -82.9144 139.286 -81.7251C139.274 -81.4967 139.264 -81.2683 139.255 -81.0399C139.352 -81.1905 139.449 -81.3408 139.545 -81.4906ZM144.391 -86.8296C143.914 -86.0509 143.439 -85.2633 142.966 -84.4673C143.387 -85.3331 143.817 -86.193 144.254 -87.0464C144.3 -86.9741 144.345 -86.9018 144.391 -86.8296ZM149.506 -94.8458C147.937 -92.4706 146.328 -89.9755 144.728 -87.3789C144.673 -87.4677 144.618 -87.5565 144.563 -87.6454C145.95 -90.3223 147.408 -92.934 148.894 -95.4653C149.096 -95.2584 149.3 -95.0519 149.506 -94.8458ZM148.473 -95.9012C147.815 -96.5898 147.182 -97.2827 146.575 -97.9794C145.337 -95.4164 144.175 -92.8018 143.123 -90.1484C143.467 -89.5072 143.828 -88.8682 144.208 -88.2314C145.578 -90.8577 147.012 -93.4191 148.473 -95.9012ZM142.48 -90.1203C141.724 -88.199 141.025 -86.257 140.396 -84.2993C140.172 -85.2637 139.98 -86.2305 139.819 -87.1991C140.108 -89.2211 140.496 -91.2376 140.97 -93.2435C141.429 -92.1975 141.932 -91.1562 142.48 -90.1203ZM146.158 -98.4632C144.945 -95.9661 143.804 -93.4186 142.764 -90.8324C142.19 -91.9455 141.67 -93.0646 141.199 -94.1891C141.84 -96.7566 142.619 -99.3055 143.507 -101.825C144.328 -100.695 145.211 -99.5744 146.158 -98.4632ZM143.089 -102.408C142.991 -102.547 142.894 -102.686 142.798 -102.825C141.888 -104.139 141.06 -105.465 140.309 -106.8C139.845 -104.41 139.51 -102.009 139.325 -99.6042C139.742 -98.099 140.24 -96.6004 140.826 -95.1105C141.466 -97.5647 142.229 -100 143.089 -102.408ZM140.582 -94.1524C140.068 -95.3943 139.615 -96.6424 139.219 -97.8954C139.083 -94.9852 139.175 -92.0734 139.533 -89.1745C139.821 -90.8399 140.174 -92.5001 140.582 -94.1524ZM139.867 -107.603C139.439 -105.515 139.108 -103.417 138.887 -101.314C138.019 -104.992 137.622 -108.704 137.615 -112.422C138.261 -110.804 139.01 -109.197 139.867 -107.603ZM109.544 -21.5154C110.57 -41.9763 122.709 -62.2787 132.778 -77.3641L133.281 -77.0704C123.21 -61.9817 111.153 -41.7882 110.135 -21.4847C109.627 -11.3424 111.874 -1.1765 118.502 8.39805C125.131 17.975 136.156 26.9801 153.239 34.7761C193.017 52.9293 225.55 47.7124 250.694 43.6802C253.028 43.3059 255.299 42.9418 257.506 42.6075C270.473 40.6433 281.316 39.6944 289.887 43.8757C298.481 48.0682 304.703 57.3664 308.594 75.656L308.014 75.7582C304.133 57.5168 297.963 48.4349 289.617 44.363C281.247 40.2799 270.602 41.1826 257.606 43.151C255.401 43.485 253.131 43.8492 250.796 44.2238C225.646 48.2582 192.939 53.5049 152.983 35.2702C135.829 27.4418 124.708 18.3764 118.005 8.69336C111.301 -0.992031 109.031 -11.2755 109.544 -21.5154ZM121.759 -70.1606C111.689 -55.0751 99.5502 -34.7728 98.5249 -14.3118C98.0118 -4.07199 100.282 6.21153 106.986 15.8969C113.688 25.5799 124.809 34.6453 141.963 42.4737C181.92 60.7084 214.626 55.4618 239.776 51.4274C242.111 51.0527 244.382 50.6886 246.586 50.3546C259.582 48.3862 270.228 47.4835 278.597 51.5665C286.944 55.6384 293.114 64.7203 296.994 82.9618L297.574 82.8595C293.684 64.57 287.462 55.2717 278.868 51.0793C270.297 46.898 259.454 47.8469 246.486 49.811C244.28 50.1452 242.01 50.5093 239.676 50.8835L239.675 50.8838C214.53 54.9159 181.998 60.1329 142.22 41.9797C125.137 34.1836 114.111 25.1785 107.482 15.6016C100.855 6.02705 98.6076 -4.13882 99.1158 -14.2812C100.133 -34.5847 112.19 -54.7781 122.262 -69.8669L121.759 -70.1606ZM86.623 -8.13682C87.6482 -28.5977 99.7873 -48.9001 109.857 -63.9856L110.36 -63.6919C100.288 -48.6031 88.2312 -28.4097 87.2138 -8.10617C86.7056 2.0362 88.9529 12.2021 95.5803 21.7766C102.209 31.3535 113.235 40.3587 130.318 48.1547C170.096 66.3079 202.628 61.0909 227.773 57.0588L227.777 57.0581L227.783 57.0572C230.114 56.6834 232.381 56.3198 234.584 55.9861C247.552 54.0219 258.395 53.073 266.966 57.2543C275.56 61.4467 281.782 70.745 285.672 89.0346L285.092 89.1368C281.212 70.8953 275.042 61.8134 266.695 57.7416C258.326 53.6585 247.68 54.5612 234.685 56.5296C232.493 56.8615 230.237 57.2233 227.917 57.5955L227.903 57.5978L227.898 57.5985L227.891 57.5997L227.879 57.6016L227.874 57.6024C202.724 61.6368 170.018 66.8835 130.061 48.6487C112.907 40.8203 101.787 31.755 95.084 22.0719C88.3798 12.3865 86.1099 2.10303 86.623 -8.13682ZM97.429 -58.4547C87.3597 -43.3692 75.2206 -23.0669 74.1954 -2.60597C73.6823 7.63387 75.9522 17.9174 82.6564 27.6028C89.3589 37.2858 100.48 46.3512 117.634 54.1796C157.59 72.4143 190.297 67.1676 215.447 63.1332C217.782 62.7586 220.052 62.3944 222.257 62.0605C235.253 60.092 245.898 59.1894 254.268 63.2724C262.614 67.3443 268.784 76.4262 272.665 94.6676L273.245 94.5654C269.354 76.2758 263.132 66.9776 254.538 62.7851C245.967 58.6038 235.124 59.5528 222.157 61.5169C219.95 61.8512 217.679 62.2153 215.345 62.5896C190.201 66.6218 157.668 71.8387 117.89 53.6855C100.807 45.8895 89.7819 36.8844 83.1527 27.3075C76.5253 17.7329 74.278 7.56705 74.7863 -2.57533C75.8036 -22.8788 87.8607 -43.0723 97.9322 -58.161L97.429 -58.4547ZM61.516 2.6088C62.5412 -17.8521 74.6803 -38.1545 84.7496 -53.24L85.2528 -52.9463C75.1813 -37.8575 63.1242 -17.6641 62.1069 2.63944C61.5987 12.7818 63.8459 22.9477 70.4734 32.5222C77.1025 42.0992 88.1278 51.1043 105.211 58.9003C144.989 77.0535 177.521 71.8365 202.666 67.8044L202.67 67.8037L202.676 67.8028C205.007 67.429 207.274 67.0654 209.477 66.7317C222.445 64.7675 233.288 63.8186 241.859 67.9999C250.453 72.1923 256.675 81.4906 260.566 99.7802L259.985 99.8824C256.105 81.641 249.935 72.559 241.588 68.4872C233.219 64.4041 222.573 65.3068 209.578 67.2752C207.375 67.6088 205.107 67.9726 202.774 68.3468L202.767 68.348C177.617 72.3824 144.911 77.6291 104.954 59.3943C87.8004 51.5659 76.6796 42.5006 69.977 32.8175C63.2728 23.1322 61.0029 12.8486 61.516 2.6088ZM72.0302 -48.0788C61.9609 -32.9933 49.8219 -12.6909 48.7966 7.76998C48.2835 18.0098 50.5534 28.2933 57.2576 37.9787C63.9602 47.6617 75.081 56.7271 92.2349 64.5555C132.192 82.7903 164.898 77.5436 190.048 73.5092L190.052 73.5085C192.386 73.1341 194.655 72.7702 196.858 72.4364C209.854 70.468 220.499 69.5653 228.869 73.6484C237.215 77.7202 243.386 86.8022 247.266 105.044L247.846 104.941C243.956 86.6518 237.733 77.3535 229.14 73.1611C220.569 68.9798 209.726 69.9287 196.758 71.8929C194.554 72.2267 192.286 72.5903 189.955 72.9642L189.95 72.9649L189.946 72.9656C164.802 76.9977 132.269 82.2147 92.4914 64.0615C75.4084 56.2655 64.3831 47.2603 57.754 37.6834C51.1265 28.1089 48.8793 17.943 49.3875 7.80063C50.4048 -12.5029 62.4619 -32.6963 72.5334 -47.7851L72.0302 -48.0788ZM36.1888 13.0761C37.214 -7.3848 49.3531 -27.6871 59.4223 -42.7726L59.9255 -42.4789C49.8541 -27.3902 37.797 -7.19673 36.7796 13.1068C36.2714 23.2491 38.5186 33.415 45.1461 42.9896C51.7752 52.5665 62.8005 61.5716 79.8835 69.3676C119.661 87.5208 152.194 82.3039 177.338 78.2717L177.344 78.2708C179.676 77.8968 181.945 77.533 184.15 77.199C197.118 75.2349 207.961 74.286 216.532 78.4672C225.126 82.6597 231.348 91.9579 235.238 110.248L234.658 110.35C230.778 92.1083 224.608 83.0264 216.261 78.9545C207.891 74.8715 197.246 75.7742 184.25 77.7426C182.047 78.0763 179.778 78.4403 177.444 78.8147L177.443 78.8148L177.44 78.8153C152.29 82.8497 119.584 88.0964 79.6271 69.8617C62.4732 62.0333 51.3523 52.9679 44.6497 43.2849C37.9456 33.5995 35.6757 23.316 36.1888 13.0761ZM47.046 -37.1777C36.9767 -22.0922 24.8376 -1.78984 23.8124 18.6711C23.2993 28.9109 25.5692 39.1945 32.2734 48.8798C38.9759 58.5629 50.0968 67.6282 67.2507 75.4567C107.207 93.6914 139.914 88.4447 165.064 84.4103C167.399 84.0357 169.669 83.6715 171.874 83.3375C184.87 81.3691 195.515 80.4664 203.885 84.5495C212.231 88.6213 218.401 97.7032 222.282 115.945L222.862 115.842C218.971 97.5529 212.749 88.2546 204.155 84.0622C195.584 79.8809 184.741 80.8298 171.774 82.794C169.567 83.1282 167.296 83.4924 164.962 83.8667C139.818 87.8988 107.285 93.1158 67.5071 74.9626C50.4241 67.1666 39.3988 58.1614 32.7697 48.5845C26.1422 39.01 23.895 28.8441 24.4032 18.7017C25.4206 -1.60177 37.4777 -21.7952 47.5491 -36.884L47.046 -37.1777ZM11.7528 24.6541C12.778 4.19317 24.9171 -16.1092 34.9863 -31.1947L35.4895 -30.901C25.4181 -15.8122 13.361 4.38123 12.3436 24.6847C11.8354 34.8271 14.0826 44.993 20.7101 54.5675C27.3392 64.1445 38.3645 73.1496 55.4475 80.9456C95.2255 99.0988 127.758 93.8818 152.902 89.8497L152.908 89.8488C155.24 89.4748 157.509 89.111 159.714 88.777C172.682 86.8128 183.525 85.8639 192.096 90.0452C200.69 94.2376 206.912 103.536 210.802 121.825L210.222 121.928C206.342 103.686 200.172 94.6043 191.825 90.5325C183.455 86.4494 172.81 87.3521 159.814 89.3205C157.616 89.6535 155.353 90.0165 153.025 90.3899L153.01 90.3923L153.004 90.3933C127.854 94.4277 95.1477 99.6744 55.1911 81.4396C38.0372 73.6112 26.9163 64.5459 20.2138 54.8628C13.5096 45.1775 11.2397 34.8939 11.7528 24.6541ZM23.3033 -24.7582C13.234 -9.67274 1.09493 10.6296 0.0696935 31.0905C-0.443395 41.3304 1.82649 51.6139 8.53069 61.2993C15.2332 70.9823 26.3541 80.0477 43.508 87.8761C83.4646 106.111 116.171 100.864 141.321 96.8297L141.322 96.8295C143.657 96.455 145.927 96.0909 148.131 95.757C161.127 93.7886 171.772 92.8859 180.142 96.9689C188.489 101.041 194.659 110.123 198.539 128.364L199.119 128.262C195.229 109.972 189.006 100.674 180.413 96.4816C171.842 92.3004 160.999 93.2493 148.031 95.2134C145.825 95.5476 143.554 95.9117 141.22 96.286L141.219 96.2861C116.075 100.318 83.5424 105.535 43.7645 87.382C26.6815 79.586 15.6561 70.5809 9.02704 61.004C2.39957 51.4294 0.152347 41.2636 0.660548 31.1212C1.6779 10.8177 13.735 -9.37575 23.8065 -24.4645L23.3033 -24.7582Z" fill="url(#paint0_radial_1_252)" fill-opacity="0.58"/>
<defs>
<radialGradient id="paint0_radial_1_252" cx="0" cy="0" r="1" gradientTransform="matrix(130.345 85.66 -95.3396 125.988 146.236 11.4073)" gradientUnits="userSpaceOnUse">
<stop stop-color="white"/>
<stop offset="1" stop-color="#1E1E1E" stop-opacity="0"/>
<stop offset="1" stop-color="#0E0E35" stop-opacity="0"/>
<stop offset="1" stop-color="white" stop-opacity="0"/>
</radialGradient>
</defs>
</svg>
